<svg width="27" height="27" viewBox="0 0 27 27" fill="none" xmlns="http://www.w3.org/2000/svg">
<path fill-rule="evenodd" clip-rule="evenodd" d="M16.5903 4.46378C15.6546 4.00573 14.6049 3.75 13.5007 3.75C9.91626 3.75 6.90499 6.44521 6.50916 10.0078L6.22588 12.5573C6.1978 12.81 6.1854 12.9208 6.16997 13.0291C6.04415 13.9119 5.75655 14.764 5.32161 15.5424C5.26825 15.6379 5.21092 15.7336 5.08011 15.9517L4.42982 17.0355L4.40393 17.0786C4.0787 17.6206 3.79712 18.0898 3.62637 18.4818C3.45119 18.8839 3.31175 19.3791 3.51391 19.8919C3.57375 20.0437 3.65454 20.1864 3.75391 20.3158C4.08957 20.7529 4.586 20.8882 5.02094 20.9448C5.44485 21.0001 5.99207 21 6.6241 21H6.6242L6.6745 21H20.327L20.3773 21H20.3774C21.0094 21 21.5566 21.0001 21.9805 20.9448C22.4155 20.8882 22.9119 20.7529 23.2476 20.3158C23.347 20.1864 23.4277 20.0437 23.4876 19.8919C23.6897 19.3791 23.5503 18.8839 23.3751 18.4818C23.2044 18.0898 22.9228 17.6206 22.5976 17.0786L22.5717 17.0355L21.9214 15.9516C21.7906 15.7336 21.7332 15.6379 21.6799 15.5424C21.2449 14.764 20.9573 13.9119 20.8315 13.0291C20.8161 12.9208 20.8037 12.81 20.7756 12.5573L20.6944 11.8261C20.2361 12.0082 19.7387 12.1129 19.2182 12.124L19.2848 12.7229L19.2863 12.7364L19.2863 12.7364C19.3125 12.972 19.3274 13.1068 19.3465 13.2408C19.4984 14.3062 19.8455 15.3345 20.3704 16.2741C20.4364 16.3921 20.5062 16.5085 20.628 16.7116L20.6281 16.7117L20.6351 16.7234L21.2854 17.8072C21.644 18.4049 21.873 18.7895 22 19.0809C22.0729 19.2484 22.0854 19.3274 22.0869 19.354C22.0809 19.3671 22.0738 19.3796 22.0657 19.3914C22.0421 19.4039 21.9679 19.4338 21.7868 19.4574C21.4717 19.4985 21.024 19.5 20.327 19.5H6.6745C5.97752 19.5 5.52983 19.4985 5.21474 19.4574C5.03357 19.4338 4.95939 19.4039 4.93579 19.3914C4.92766 19.3796 4.92057 19.3671 4.91459 19.354C4.91607 19.3274 4.92857 19.2484 5.00154 19.0809C5.12845 18.7895 5.35747 18.4049 5.71606 17.8072L6.36635 16.7234L6.37334 16.7117C6.49527 16.5085 6.56508 16.3922 6.63108 16.2741C7.15601 15.3345 7.50312 14.3062 7.65496 13.2408C7.67405 13.1068 7.68903 12.972 7.7152 12.7365L7.7152 12.7364L7.7167 12.7229L7.99998 10.1734C8.31142 7.37051 10.6806 5.25 13.5007 5.25C14.2098 5.25 14.8903 5.38404 15.5168 5.62927C15.799 5.1768 16.1639 4.78125 16.5903 4.46378ZM18.4062 5.7425C17.9094 5.91006 17.4903 6.24633 17.2169 6.68317C18.1749 7.55106 18.8305 8.75334 18.9955 10.1213C19.0386 10.1238 19.082 10.125 19.1257 10.125C19.6209 10.125 20.0788 9.96501 20.4504 9.69391C20.2082 8.1449 19.4682 6.77538 18.4062 5.7425ZM22.0866 19.3648C22.0865 19.3647 22.0864 19.3627 22.0871 19.359C22.0871 19.3631 22.0868 19.365 22.0866 19.3648ZM22.0749 19.3856C22.075 19.3857 22.0736 19.3869 22.0701 19.389C22.0729 19.3866 22.0747 19.3855 22.0749 19.3856ZM4.92664 19.3856C4.92683 19.3855 4.92861 19.3866 4.93141 19.389C4.92785 19.3869 4.92645 19.3857 4.92664 19.3856ZM4.91488 19.3648C4.91471 19.365 4.9144 19.3631 4.91443 19.359C4.91505 19.3627 4.91504 19.3647 4.91488 19.3648Z" fill="white"/>
<path d="M10.24 20.7066C10.4323 21.5438 10.856 22.2837 11.4454 22.8113C12.0349 23.339 12.757 23.625 13.5 23.625C14.243 23.625 14.9651 23.339 15.5546 22.8113C16.144 22.2837 16.5677 21.5438 16.76 20.7066" stroke="white" stroke-width="1.5" stroke-linecap="round"/>
<circle cx="19.125" cy="7.875" r="2.25" fill="white"/>
</svg>
