<svg xmlns="http://www.w3.org/2000/svg" xmlns:xlink="http://www.w3.org/1999/xlink" width="50" height="50" viewBox="0 0 50 50">
  <defs>
    <clipPath id="clip-wiki">
      <rect width="50" height="50"/>
    </clipPath>
  </defs>
  <g id="wiki" clip-path="url(#clip-wiki)">
    <path id="wiki-2" data-name="wiki" d="M43.378,20.838a4.6,4.6,0,0,0-1.63-2.619l-.233-.175a4.062,4.062,0,0,0-1.863-.524,3.96,3.96,0,0,0-.873.116,4.407,4.407,0,0,0-2.619,1.688,2.687,2.687,0,0,0-.524.873l-6.228.058a4.6,4.6,0,0,0-.64-1.688,6.052,6.052,0,0,0-1.513-2.1l1.63-2.91a2.388,2.388,0,0,0,.64.058,4.11,4.11,0,0,0,3.9-4.307,4.133,4.133,0,1,0-8.265,0,3.848,3.848,0,0,0,1.048,2.91l-1.572,2.736a6.333,6.333,0,0,0-2.1-.349,7.449,7.449,0,0,0-2.27.407L15.5,6.694a5.314,5.314,0,0,0,.466-.757l.058-.116a4.037,4.037,0,0,0,.233-2.969,3.732,3.732,0,0,0-1.8-2.27L14.217.466,14.1.407A4.481,4.481,0,0,0,12.413,0a4.051,4.051,0,0,0-2.154.64A4.388,4.388,0,0,0,8.687,2.328a4.078,4.078,0,0,0-.233,3.085,4.221,4.221,0,0,0,2.037,2.328,4.2,4.2,0,0,0,1.63.407,4.123,4.123,0,0,0,.815.058l4.773,8.323a6.464,6.464,0,0,0-2.1,2.91,6.973,6.973,0,0,0-.407,2.677L9.5,23.69A4.941,4.941,0,0,0,2.75,21.769a5.011,5.011,0,0,0,4.6,8.906A4.893,4.893,0,0,0,10.2,26.658l5.937-1.63.058.058a4.583,4.583,0,0,0,1.339,1.921l-3.26,5.7a3.753,3.753,0,0,0-1.164-.175,4.744,4.744,0,0,0-4.6,5.006,4.033,4.033,0,0,0,.175,1.164,4.633,4.633,0,0,0,5.646,3.376,3,3,0,0,0,1.164-.524,4.733,4.733,0,0,0,1.746-1.8,5.486,5.486,0,0,0,.64-3.027,4.945,4.945,0,0,0-.99-2.561l3.26-5.646a5.832,5.832,0,0,0,1.979.291h.64l1.863,6.927a4.371,4.371,0,0,0-1.572,2.1,4.033,4.033,0,0,0,.175,3.085,4.21,4.21,0,0,0,2.27,2.1,3.132,3.132,0,0,0,1.281.233,4.278,4.278,0,0,0,1.746-.407,4.323,4.323,0,0,0,2.1-2.328,4.849,4.849,0,0,0,.233-.873,3.848,3.848,0,0,0-.349-2.154,4.1,4.1,0,0,0-2.212-2.1,7.486,7.486,0,0,0-1.106-.233L25.334,28.23l.116-.058a7.515,7.515,0,0,0,2.154-1.63A6.385,6.385,0,0,0,29,24.214v-.058a3.281,3.281,0,0,1,.233-.7v-.116l.058-.058,6.286-.058a3.361,3.361,0,0,0,1.513,1.863,4.052,4.052,0,0,0,5.646-1.106,4.439,4.439,0,0,0,.64-3.143ZM27.488,37.659a1.711,1.711,0,0,1,.873.815,1.353,1.353,0,0,1,.058,1.164,1.491,1.491,0,0,1-.757.815,2.218,2.218,0,0,1-.582.175,1.7,1.7,0,0,1-.524-.116,1.605,1.605,0,0,1-.815-.7,1.353,1.353,0,0,1-.058-1.164,1.432,1.432,0,0,1,1.4-1.048.991.991,0,0,1,.407.058ZM26.207,22.991a3.761,3.761,0,0,1-1.979,2.328,3.926,3.926,0,0,1-3.842-.116,3.79,3.79,0,0,1-1.572-1.746,4.369,4.369,0,0,1-.233-3.085,3.68,3.68,0,0,1,2.037-2.328,4.743,4.743,0,0,1,1.8-.349,3.318,3.318,0,0,1,1.281.233,3.811,3.811,0,0,1,2.27,1.979,3.579,3.579,0,0,1,.233,3.085ZM7.232,26.309a2.1,2.1,0,1,1-2.1-2.1A2.087,2.087,0,0,1,7.232,26.309Zm22.06-18.1A1.105,1.105,0,0,1,30.4,9.313a1.106,1.106,0,1,1-2.212,0A1.105,1.105,0,0,1,29.292,8.207Z" transform="translate(3.747 3.775)" fill="#606060"/>
  </g>
</svg>
