<svg xmlns="http://www.w3.org/2000/svg" xmlns:xlink="http://www.w3.org/1999/xlink" width="50" height="50" viewBox="0 0 50 50">
  <defs>
    <clipPath id="clip-folder">
      <rect width="50" height="50"/>
    </clipPath>
  </defs>
  <g id="folder" clip-path="url(#clip-folder)">
    <path id="Subtraction_26" data-name="Subtraction 26" d="M-1191.753,19201.492q-2.556,0-5.109,0l-2.551,0h-5.326l-2.777,0h-5.554q-2.777,0-5.553,0a5.441,5.441,0,0,1-3.975-1.391,5.341,5.341,0,0,1-1.4-3.945c0-8.574,0-17.268,0-25.844,0-3.361,1.944-5.291,5.32-5.295,1.36,0,2.766,0,4.149,0l.016,0,2.954,0c1.888,0,3.46-.006,4.948-.023.027,0,.054,0,.081,0a4.824,4.824,0,0,1,4.834,3.082,1.162,1.162,0,0,0,1.262.775h.034c2.571-.014,5.158-.021,8.141-.021,1.972,0,3.942,0,5.855.006l1.4,0a4.858,4.858,0,0,1,5.224,5.229c.01,7.381.01,14.863,0,22.238a4.809,4.809,0,0,1-5.171,5.176C-1187.218,19201.492-1189.524,19201.492-1191.753,19201.492Zm-26.89-34.58c-2.328,0-3.412,1.09-3.412,3.422v25.752c0,2.455,1.051,3.5,3.513,3.5h22.269q2.806,0,5.612,0t5.611,0c2.209,0,3.33-1.121,3.33-3.324,0-3.982,0-8.033,0-11.947v-1.246q0-2.543,0-5.084c0-2.273-1.1-3.379-3.354-3.379q-1.86,0-3.721,0t-3.721,0c-2.67,0-4.735.008-6.7.031l-.041,0a1.861,1.861,0,0,1-1.949-1.264c-.373-.844-.807-1.687-1.189-2.432l-.014-.025c-.33-.645-.671-1.309-.98-1.977a3.242,3.242,0,0,0-3.245-2.033h-.036c-1.466.008-3.08.014-5.079.014q-1.356,0-2.712,0Zm18.645,3.816h0v.084l-.083.01-.1.012c.067.209.127.395.183.563v2.6h17.8v-.7a4.243,4.243,0,0,1,.448.266,3.878,3.878,0,0,0-.448-1.455v-1.379Z" transform="translate(1227 -19158)" fill="#606060" stroke="#606060" stroke-width="1.5"/>
  </g>
</svg>
