<svg xmlns="http://www.w3.org/2000/svg" xmlns:xlink="http://www.w3.org/1999/xlink" width="50" height="50" viewBox="0 0 50 50">
  <defs>
    <clipPath id="clip-H5P">
      <rect width="50" height="50"/>
    </clipPath>
  </defs>
  <g id="H5P" clip-path="url(#clip-H5P)">
    <g id="h5pactivity" transform="translate(3.8 -5)">
      <path id="Path_95097" data-name="Path 95097" d="M23.575,30.936a2.546,2.546,0,0,0-3.561.4l-.4.459-2.47-.345c-1.378-.172-2.47-.4-2.527-.4a3.252,3.252,0,0,1,.172-1.034c.172-.919,1.9-8.442,2.01-8.845L16.855,21H12.261v7.983H5.943V21H.2V39.551H5.943V32.659h6.2v6.834h3.446c1.838,0,3.388,0,3.331-.057-.172-.115-.459-.172-.632-.287a6.148,6.148,0,0,1-2.929-2.47,6.216,6.216,0,0,1-.8-1.953,22.143,22.143,0,0,1,2.527-.4l2.47-.345.459.459a2.53,2.53,0,0,0,3.905-3.216c-.115,0-.23-.172-.345-.287Z" transform="translate(0 0)" fill="#606060"/>
      <path id="Path_95098" data-name="Path 95098" d="M57.641,26.628a6.19,6.19,0,0,0-.23-2.068,4.752,4.752,0,0,0-3.676-3.331c-.689-.172-1.034-.172-5.054-.23H44.317v3.848H35.932l-.287,1.264c-.172.689-.287,1.321-.345,1.436,0,.057,0,.115.115.057a5.412,5.412,0,0,1,.976-.287,6.434,6.434,0,0,1,2.412-.23,7.293,7.293,0,0,1,2.355.23,5.621,5.621,0,0,1,2.527,1.608A5.157,5.157,0,0,1,45.236,33c0,2.872-1.723,5.571-3.963,6.318a4.554,4.554,0,0,0-.517.23,31.178,31.178,0,0,0,3.274.115h3.331V32.774h1.551a20.4,20.4,0,0,0,4.595-.345,5.39,5.39,0,0,0,3.963-3.848A5.761,5.761,0,0,0,57.641,26.628Zm-5.628.8a2.2,2.2,0,0,1-1.436,1.321,7.281,7.281,0,0,1-1.953.172l-1.436.057V24.676l1.493.057a9.953,9.953,0,0,1,1.838.172,2.054,2.054,0,0,1,1.493,2.527Z" transform="translate(-14.941 0)" fill="#606060"/>
    </g>
  </g>
</svg>
