<svg xmlns="http://www.w3.org/2000/svg" xmlns:xlink="http://www.w3.org/1999/xlink" width="50" height="37" viewBox="0 0 50 37">
  <defs>
    <clipPath id="clip-Book">
      <rect width="50" height="37"/>
    </clipPath>
  </defs>
  <g id="Book" clip-path="url(#clip-Book)">
    <g id="Group_26586" data-name="Group 26586" transform="translate(-2.632 -8.998)">
      <path id="Vector_1_" data-name="Vector (1)" d="M11.85,27.372a23.387,23.387,0,0,1,5.6.666,24.971,24.971,0,0,1,5.335,2V7.3A20.459,20.459,0,0,0,17.561,4.82a19.063,19.063,0,0,0-5.711-.879,15.9,15.9,0,0,0-3.994.506A38.834,38.834,0,0,0,3.917,5.7V28.809A15.213,15.213,0,0,1,7.7,27.717a25.74,25.74,0,0,1,4.153-.346Zm14.155,2.662a27.094,27.094,0,0,1,5.255-2,21.774,21.774,0,0,1,5.469-.666,28.925,28.925,0,0,1,4.21.319,21.12,21.12,0,0,1,3.727.853V5.7A14.065,14.065,0,0,0,40.8,4.34a21.141,21.141,0,0,0-4.075-.4,18.04,18.04,0,0,0-5.6.879,20.955,20.955,0,0,0-5.121,2.476ZM24.45,35.625A25.131,25.131,0,0,0,18.5,32.457a18.9,18.9,0,0,0-6.649-1.2,13.78,13.78,0,0,0-3.7.506Q6.329,32.27,4.5,32.91a3,3,0,0,1-3.03-.16A2.933,2.933,0,0,1,0,30.087V5.485A4.2,4.2,0,0,1,.51,3.434,3.324,3.324,0,0,1,1.984,2.023,20.805,20.805,0,0,1,6.756.479,26.365,26.365,0,0,1,11.8,0a23.586,23.586,0,0,1,6.6.932A20.7,20.7,0,0,1,24.4,3.781,20.117,20.117,0,0,1,30.3.932,22.843,22.843,0,0,1,36.783,0,24.631,24.631,0,0,1,41.8.506a23.809,23.809,0,0,1,4.746,1.517,3.483,3.483,0,0,1,1.5,1.411,4.039,4.039,0,0,1,.536,2.051V30.406a2.74,2.74,0,0,1-1.528,2.583,2.87,2.87,0,0,1-3.03-.079,32.6,32.6,0,0,0-3.592-1.172,14.494,14.494,0,0,0-3.7-.479,17.343,17.343,0,0,0-6.457,1.229,28.312,28.312,0,0,0-5.818,3.137Z" transform="translate(3.634 9.998)" fill="#ed396c"/>
    </g>
  </g>
</svg>
