<svg xmlns="http://www.w3.org/2000/svg" xmlns:xlink="http://www.w3.org/1999/xlink" width="50" height="50" viewBox="0 0 50 50">
  <defs>
    <clipPath id="clip-book">
      <rect width="50" height="50"/>
    </clipPath>
  </defs>
  <g id="book" clip-path="url(#clip-book)">
    <path id="Vector_1_" data-name="Vector (1)" d="M10.286,23.759a20.3,20.3,0,0,1,4.864.578,21.675,21.675,0,0,1,4.631,1.733V6.333a17.759,17.759,0,0,0-4.538-2.149,16.547,16.547,0,0,0-4.957-.763,13.8,13.8,0,0,0-3.467.439A33.709,33.709,0,0,0,3.4,4.946V25.007a13.205,13.205,0,0,1,3.281-.948A22.343,22.343,0,0,1,10.286,23.759ZM22.573,26.07a23.518,23.518,0,0,1,4.561-1.733,18.9,18.9,0,0,1,4.747-.578,25.107,25.107,0,0,1,3.654.277,18.333,18.333,0,0,1,3.235.74V4.946a12.209,12.209,0,0,0-3.351-1.179,18.351,18.351,0,0,0-3.537-.347,15.659,15.659,0,0,0-4.864.763,18.189,18.189,0,0,0-4.445,2.149Zm-1.35,4.853a21.814,21.814,0,0,0-5.166-2.75,16.406,16.406,0,0,0-5.771-1.04,11.961,11.961,0,0,0-3.211.439q-1.582.439-3.165.994a2.6,2.6,0,0,1-2.63-.139A2.546,2.546,0,0,1,0,26.116V4.761a3.649,3.649,0,0,1,.442-1.78,2.885,2.885,0,0,1,1.28-1.225A18.059,18.059,0,0,1,5.864.416,22.885,22.885,0,0,1,10.239,0a20.473,20.473,0,0,1,5.725.809,17.971,17.971,0,0,1,5.213,2.473A17.462,17.462,0,0,1,26.3.809,19.828,19.828,0,0,1,31.928,0,21.38,21.38,0,0,1,36.28.439,20.666,20.666,0,0,1,40.4,1.756a3.023,3.023,0,0,1,1.3,1.225,3.506,3.506,0,0,1,.465,1.78V26.393a2.378,2.378,0,0,1-1.326,2.242,2.491,2.491,0,0,1-2.63-.069,28.3,28.3,0,0,0-3.118-1.017,12.581,12.581,0,0,0-3.212-.416A15.054,15.054,0,0,0,26.274,28.2,24.575,24.575,0,0,0,21.224,30.923Z" transform="translate(3.634 9.998)" fill="#606060"/>
  </g>
</svg>
