<svg xmlns="http://www.w3.org/2000/svg" xmlns:xlink="http://www.w3.org/1999/xlink" width="50" height="50" viewBox="0 0 50 50">
  <defs>
    <clipPath id="clip-lesson_1">
      <rect width="50" height="50"/>
    </clipPath>
  </defs>
  <g id="lesson_1" data-name="lesson – 1" clip-path="url(#clip-lesson_1)">
    <g id="Group_26577" data-name="Group 26577">
      <g id="Group_26566" data-name="Group 26566" transform="translate(5 4)">
        <path id="Path_95060" data-name="Path 95060" d="M18.435,43.784a29.387,29.387,0,0,0-8.722-5.35A26.4,26.4,0,0,0,0,36.568V15.118a24.244,24.244,0,0,1,9.614,2.012,32.162,32.162,0,0,1,8.821,5.694,32.162,32.162,0,0,1,8.821-5.694,24.244,24.244,0,0,1,9.614-2.012v21.45a26.4,26.4,0,0,0-9.713,1.865A29.386,29.386,0,0,0,18.435,43.784Zm0-4.712A32.433,32.433,0,0,1,25.4,35.12a29.422,29.422,0,0,1,7.558-1.988V19.389a19.692,19.692,0,0,0-6.963,2.479,40.092,40.092,0,0,0-7.558,5.669A42.6,42.6,0,0,0,10.8,21.843a20.133,20.133,0,0,0-6.839-2.454V33.132A27.459,27.459,0,0,1,11.423,35.1,34.457,34.457,0,0,1,18.435,39.072Z" fill="#606060"/>
      </g>
      <g id="Group_26577-2" data-name="Group 26577">
        <g id="Group_26578" data-name="Group 26578">
          <path id="Path_95121" data-name="Path 95121" d="M43.366,37.4c0-1.013,0-2.027,0-3.04a.541.541,0,0,1,.92-.47q2.084,1.52,4.171,3.036a.531.531,0,0,1,0,.95q-2.094,1.524-4.19,3.045a.558.558,0,0,1-.608.1.549.549,0,0,1-.295-.557c.005-1.02,0-2.04,0-3.06" transform="translate(-22.364 -25.734)" fill="#606060"/>
          <g id="Ellipse_1183" data-name="Ellipse 1183" transform="translate(14 2)" fill="none" stroke="#606060" stroke-width="2.5">
            <circle cx="9.5" cy="9.5" r="9.5" stroke="none"/>
            <circle cx="9.5" cy="9.5" r="8.25" fill="none"/>
          </g>
        </g>
      </g>
    </g>
  </g>
</svg>
