<svg xmlns="http://www.w3.org/2000/svg" xmlns:xlink="http://www.w3.org/1999/xlink" width="50" height="50" viewBox="0 0 50 50">
  <defs>
    <clipPath id="clip-_001">
      <rect width="50" height="50"/>
    </clipPath>
  </defs>
  <g id="_001" data-name="001" clip-path="url(#clip-_001)">
    <g id="Group_27250" data-name="Group 27250" transform="translate(-3 -3)">
      <path id="Vector_4_" data-name="Vector (4)" d="M5.109,48.253a4.909,4.909,0,0,1-3.583-1.52A4.909,4.909,0,0,1,0,43.142V5.109A4.909,4.909,0,0,1,1.526,1.526,4.909,4.909,0,0,1,5.109,0H43.139a4.909,4.909,0,0,1,3.59,1.526,4.909,4.909,0,0,1,1.524,3.583V43.139a5.191,5.191,0,0,1-5.111,5.111Zm-.389-4.722h38.81V9.9H4.722Zm6.47-20.056V19.6H36.416v3.873Zm0,10.349V29.948H26.067v3.88Z" transform="translate(4 4)" fill="#606060"/>
    </g>
  </g>
</svg>
