<svg xmlns="http://www.w3.org/2000/svg" xmlns:xlink="http://www.w3.org/1999/xlink" width="50" height="50" viewBox="0 0 50 50">
  <defs>
    <clipPath id="clip-text_area">
      <rect width="50" height="50"/>
    </clipPath>
  </defs>
  <g id="text_area" data-name="text area" clip-path="url(#clip-text_area)">
    <g id="Group_26562" data-name="Group 26562" transform="translate(4 3.636)">
      <g id="Group_26563" data-name="Group 26563" transform="translate(0 0)">
        <path id="Path_95114" data-name="Path 95114" d="M21.673,40.319c-3.836,0-7.673.009-11.509-.011a1.031,1.031,0,0,0-1.058.591A4.818,4.818,0,0,1,4.09,43.286,4.924,4.924,0,0,1,.07,39.234,4.818,4.818,0,0,1,2.5,34.24a.963.963,0,0,0,.552-.993q-.016-11.552,0-23.1A1.03,1.03,0,0,0,2.451,9.1,4.815,4.815,0,0,1,.082,4.075,4.92,4.92,0,0,1,4.146.067,4.8,4.8,0,0,1,9.089,2.444a1.086,1.086,0,0,0,1.132.611q11.467-.019,22.933,0a1.089,1.089,0,0,0,1.126-.622A4.8,4.8,0,0,1,39.229.069a4.916,4.916,0,0,1,4.056,4.016,4.794,4.794,0,0,1-2.31,4.973,1.165,1.165,0,0,0-.668,1.186q.027,11.424,0,22.849a1.146,1.146,0,0,0,.64,1.2,4.78,4.78,0,0,1,2.342,4.957,4.921,4.921,0,0,1-4.034,4.039,4.789,4.789,0,0,1-4.96-2.337,1.146,1.146,0,0,0-1.2-.644c-3.808.018-7.616.009-11.425.009M9.8,37.726H33.619a5.038,5.038,0,0,1,4.1-4.115V9.74A5.06,5.06,0,0,1,33.6,5.628H9.753A5.043,5.043,0,0,1,5.635,9.75V33.588c2.472.758,3.283,1.568,4.161,4.138M2.56,4.937a2.361,2.361,0,0,0,2.335,2.3A2.381,2.381,0,0,0,7.238,4.854a2.339,2.339,0,0,0-4.678.083M38.438,2.56a2.36,2.36,0,0,0-2.312,2.324,2.339,2.339,0,1,0,4.678.023A2.354,2.354,0,0,0,38.438,2.56M4.93,40.805A2.34,2.34,0,1,0,2.56,38.545,2.36,2.36,0,0,0,4.93,40.805m33.572,0a2.34,2.34,0,1,0-2.375-2.346A2.358,2.358,0,0,0,38.5,40.806" transform="translate(0 0)" fill="#606060"/>
        <path id="Path_95115" data-name="Path 95115" d="M52.084,33.368V37.93H49.621V35.906H43.254V50.263h2.072v2.514H38.5V50.289h2.072V35.9H34.248V37.9H31.726V33.368Z" transform="translate(-20.223 -21.27)" fill="#606060"/>
      </g>
    </g>
  </g>
</svg>
