<svg xmlns="http://www.w3.org/2000/svg" xmlns:xlink="http://www.w3.org/1999/xlink" width="50" height="50" viewBox="0 0 50 50">
  <defs>
    <clipPath id="clip-database">
      <rect width="50" height="50"/>
    </clipPath>
  </defs>
  <g id="database" clip-path="url(#clip-database)">
    <g id="Group_26550" data-name="Group 26550" transform="translate(0)">
      <path id="Path_95077" data-name="Path 95077" d="M.013,19.164C.013,14.4.027,9.645,0,4.885a2.034,2.034,0,0,1,1.057-2A35.545,35.545,0,0,1,4.7,1.4c.179-.066.48.2.724.313-.145.246-.234.618-.446.713-.654.293-1.363.464-2.037.717a5.76,5.76,0,0,0-1.066.532c-.928.592-.937,1.076,0,1.652A13.918,13.918,0,0,0,7.1,7a63.034,63.034,0,0,0,22.367-.26A16.641,16.641,0,0,0,32.725,5.7,6.457,6.457,0,0,0,34.157,4.51c-.466-.41-.867-1-1.41-1.193a29.431,29.431,0,0,0-4.725-1.329,64.016,64.016,0,0,0-19.574-.2,1.082,1.082,0,0,1-.516.027c-.221-.094-.576-.3-.563-.422A.834.834,0,0,1,7.807.77,11.074,11.074,0,0,1,9.572.481,65.645,65.645,0,0,1,27.746.794a43.965,43.965,0,0,1,5.388,1.449,4.682,4.682,0,0,1,1.4.833,1.994,1.994,0,0,1,.8,1.684q-.018,14.392,0,28.783a2.192,2.192,0,0,1-1.065,1.927,12.783,12.783,0,0,1-4.877,1.777,63.687,63.687,0,0,1-17.633.815,35.347,35.347,0,0,1-8.145-1.431,14.1,14.1,0,0,1-2.559-1.188,2.1,2.1,0,0,1-1.055-2c.027-4.76.013-9.52.013-14.28M34.2,25.936c-1.127.407-2.149.854-3.215,1.145A47.62,47.62,0,0,1,19.6,28.5,56.964,56.964,0,0,1,6.37,27.536c-1.754-.368-3.461-.964-5.209-1.463-.006.118-.026.36-.027.6q0,2.8,0,5.606c0,2.111.107,2.267,2.09,3.035.162.063.327.119.492.172A36.911,36.911,0,0,0,12.9,37.016a60.832,60.832,0,0,0,16-.832,31.137,31.137,0,0,0,4.251-1.345,1.6,1.6,0,0,0,1.081-1.75c-.067-2.116-.022-4.235-.022-6.352Zm0-9.786c-1.036.384-1.969.793-2.938,1.076a40.834,40.834,0,0,1-9.511,1.412A59.575,59.575,0,0,1,5.176,17.509c-1.358-.318-2.667-.851-4.037-1.3,0,2.556-.023,5.144.03,7.73a1.3,1.3,0,0,0,.672.894A14.516,14.516,0,0,0,4.8,26.022a59.437,59.437,0,0,0,24.11.372,23.76,23.76,0,0,0,4.373-1.437,1.549,1.549,0,0,0,.87-1.07c.076-2.563.04-5.129.04-7.736M1.177,6.3c-.019.223-.042.366-.042.509,0,2.268.03,4.537-.019,6.8a1.5,1.5,0,0,0,.95,1.6,22.478,22.478,0,0,0,3.585,1.236,60.568,60.568,0,0,0,22.95.232,29.243,29.243,0,0,0,4.612-1.441A1.507,1.507,0,0,0,34.22,13.6c-.054-2.167-.017-4.337-.02-6.505,0-.252-.024-.5-.039-.8A26.766,26.766,0,0,1,25.5,8.561a71.119,71.119,0,0,1-14.329.122c-3.4-.331-6.786-.752-9.991-2.381" transform="translate(7 6)" fill="#606060" stroke="#606060" stroke-width="1"/>
      <path id="Path_95078" data-name="Path 95078" d="M22.881,79.919c-3-.388-6.2-.634-9.2-1.053-.451-.063-1.24-.022-1.038-.819.178-.7.821-.358,1.271-.268a56.332,56.332,0,0,0,10.832.992c.468,0,1.165-.162,1.181.547.018.785-.708.581-1.2.6-.671.02-1.343,0-2.015,0v0" transform="translate(-0.569 -40.566)" fill="#606060"/>
      <path id="Path_95079" data-name="Path 95079" d="M66.876,78.088a2.146,2.146,0,0,1-2.181-2.163,2.182,2.182,0,0,1,2.165-2.2,2.2,2.2,0,0,1,2.19,2.179,2.167,2.167,0,0,1-2.173,2.179m-.037-1.1a1.067,1.067,0,0,0,1.068-1.017,1.017,1.017,0,0,0-.98-1.083A1.056,1.056,0,0,0,65.8,75.915a1.1,1.1,0,0,0,1.034,1.068" transform="translate(-31.816 -38.236)" fill="#606060" stroke="#606060" stroke-width="1"/>
      <path id="Path_95080" data-name="Path 95080" d="M52.188,81.308a2.1,2.1,0,0,1-.742-.021.941.941,0,0,1-.553-.526c-.036-.124.278-.489.465-.514a16.136,16.136,0,0,1,2.373-.148c.208,0,.412.311.618.479-.178.2-.326.509-.54.564a10.91,10.91,0,0,1-1.622.167" transform="translate(-23.533 -42.057)" fill="#606060"/>
      <path id="Path_95081" data-name="Path 95081" d="M25.152,55.468a53.235,53.235,0,0,1-11.662-1.046,1.493,1.493,0,0,1-.722-.325c-.11-.108-.12-.525-.028-.586a1.235,1.235,0,0,1,.786-.216c1.552.216,3.093.525,4.648.711a65.108,65.108,0,0,0,12.093.2c.174-.012.38-.09.514-.024a3.866,3.866,0,0,1,.641.493c-.2.21-.376.573-.6.6a27.342,27.342,0,0,1-2.758.183c-.971.027-1.944.006-2.916.006" transform="translate(-0.606 -25.971)" fill="#606060"/>
      <path id="Path_95082" data-name="Path 95082" d="M64.7,51.736a2.155,2.155,0,0,1,2.225-2.122,2.178,2.178,0,0,1,2.129,2.229,2.214,2.214,0,0,1-2.235,2.135A2.18,2.18,0,0,1,64.7,51.736m2.185-1.005a1.084,1.084,0,0,0-1.075,1.021,1.063,1.063,0,0,0,1.081,1.079,1.019,1.019,0,0,0,1.022-1.048,1.046,1.046,0,0,0-1.028-1.052" transform="translate(-31.816 -23.768)" fill="#606060" stroke="#606060" stroke-width="1"/>
      <path id="Path_95083" data-name="Path 95083" d="M25.173,31.382a55.85,55.85,0,0,1-11.514-1l-.366-.076c-.382-.083-.783-.194-.7-.692.1-.56.548-.468.95-.414,2.317.31,4.627.774,6.954.893,3.055.157,6.124.044,9.186.042a3.607,3.607,0,0,1,.89-.03c.285.077.7.267.755.486.13.493-.314.6-.706.629-.97.065-1.94.13-2.911.16-.846.026-1.694.006-2.541.006" transform="translate(-0.551 -11.492)" fill="#606060"/>
      <path id="Path_95084" data-name="Path 95084" d="M66.876,29.827a2.178,2.178,0,0,1-.018-4.355,2.178,2.178,0,1,1,.018,4.355m1.034-2.163a1.039,1.039,0,0,0-1.021-1.054,1.075,1.075,0,0,0-1.084,1,1.1,1.1,0,0,0,1.071,1.1,1.07,1.07,0,0,0,1.034-1.054" transform="translate(-31.815 -9.283)" fill="#606060" stroke="#606060" stroke-width="1"/>
    </g>
  </g>
</svg>
