<svg xmlns="http://www.w3.org/2000/svg" xmlns:xlink="http://www.w3.org/1999/xlink" width="50" height="50" viewBox="0 0 50 50">
  <defs>
    <clipPath id="clip-assignment">
      <rect width="50" height="50"/>
    </clipPath>
  </defs>
  <g id="assignment" clip-path="url(#clip-assignment)">
    <path id="Vector" d="M8.925,30.531h2.959L24.457,18.413l-2.909-2.887L8.925,27.691Zm16.42-12.97,1.923-1.846a1.1,1.1,0,0,0,.37-.734,1,1,0,0,0-.37-.781l-1.43-1.325a.943.943,0,0,0-.764-.355,1.182,1.182,0,0,0-.764.355l-1.874,1.8ZM3.9,39.24a3.8,3.8,0,0,1-2.761-1.112A3.612,3.612,0,0,1,0,35.454V7.526A3.559,3.559,0,0,1,1.134,4.9,3.8,3.8,0,0,1,3.9,3.787h9.418a4.573,4.573,0,0,1,1.824-2.745A5.465,5.465,0,0,1,18.441,0a5.465,5.465,0,0,1,3.3,1.041,4.573,4.573,0,0,1,1.824,2.745h9.418A3.879,3.879,0,0,1,35.773,4.9a3.523,3.523,0,0,1,1.159,2.627V35.454a3.575,3.575,0,0,1-1.159,2.674,3.879,3.879,0,0,1-2.786,1.112Zm0-3.787H32.987V7.526H3.9ZM18.441,6.674a1.807,1.807,0,0,0,1.331-.544,1.78,1.78,0,0,0,.542-1.3,1.727,1.727,0,0,0-.542-1.254,1.9,1.9,0,0,0-2.663,0,1.727,1.727,0,0,0-.542,1.254,1.779,1.779,0,0,0,.542,1.3A1.807,1.807,0,0,0,18.441,6.674Z" transform="translate(7 5.001)" fill="#606060"/>
  </g>
</svg>
