<svg xmlns="http://www.w3.org/2000/svg" xmlns:xlink="http://www.w3.org/1999/xlink" width="50" height="50" viewBox="0 0 50 50">
  <defs>
    <clipPath id="clip-feedback">
      <rect width="50" height="50"/>
    </clipPath>
  </defs>
  <g id="feedback" clip-path="url(#clip-feedback)">
    <g id="Group_26553" data-name="Group 26553" transform="translate(2 2.997)">
      <g id="Group_26569" data-name="Group 26569" transform="translate(0 0.004)">
        <path id="Path_95087" data-name="Path 95087" d="M16.273,163.641c-3.511,0-6.866.021-10.22-.006a5.828,5.828,0,0,1-5.937-4.69A7.113,7.113,0,0,1,.006,157.5Q0,147.334,0,137.166A5.745,5.745,0,0,1,5.986,131.1c6.746-.018,13.493-.006,20.239,0,.226,0,.521-.071.663.043.369.3.906.659.932,1.027s-.415.873-.781,1.138c-.267.193-.745.12-1.129.12q-9.781.008-19.561.005c-2.728,0-4.015,1.3-4.015,4.044q0,9.926,0,19.852c0,2.623,1.359,3.978,4.008,3.985,3.518.01,7.037,0,10.555,0,1.387,0,1.7.323,1.706,1.713,0,1.282,0,2.564,0,4.051.571-.419,1-.73,1.426-1.048,1.858-1.394,3.7-2.817,5.586-4.166a2.964,2.964,0,0,1,1.585-.527c3.518-.046,7.037-.019,10.555-.026,2.74-.006,4.083-1.366,4.084-4.123q0-7.457,0-14.913c0-.29-.1-.654.038-.855.262-.384.66-.939,1-.938.415,0,.893.445,1.217.81.167.188.072.619.072.941q0,7.553,0,15.107c0,3.856-2.427,6.29-6.288,6.3-3.292.012-6.585-.024-9.877.028a3.082,3.082,0,0,0-1.657.563c-2.637,1.914-5.213,3.913-7.853,5.823a1.877,1.877,0,0,1-1.537.343,1.878,1.878,0,0,1-.657-1.419c-.078-1.732-.03-3.47-.03-5.335" transform="translate(0.001 -126.423)" fill="#606060"/>
        <path id="Path_95088" data-name="Path 95088" d="M717.536,17.477c-.522-2.1.52-3.478,1.969-4.873C723.53,8.733,727.429,4.732,731.38.785c1.036-1.035,1.47-1.038,2.491-.023q1.957,1.947,3.9,3.9c.912.919.926,1.385.037,2.276q-6.67,6.684-13.371,13.337a2.583,2.583,0,0,1-1.523.643c-1.285.091-2.581.046-3.872.024-1.13-.019-1.494-.4-1.509-1.532-.008-.646,0-1.291,0-1.937M732.565,2.936c-.222.21-.48.441-.725.686-3.6,3.6-7.127,7.281-10.842,10.76-1.4,1.312-1.1,2.68-1.087,4.237a9.253,9.253,0,0,1,1.26.009,3.1,3.1,0,0,0,2.86-1.157c3.575-3.671,7.222-7.271,10.859-10.881a3.077,3.077,0,0,1,.809-.457l-3.135-3.2" transform="translate(-691.964 -0.005)" fill="#606060"/>
        <path id="Path_95089" data-name="Path 95089" d="M212.316,720.907q6.583,0,13.166,0c.322,0,.724-.1.949.056.383.26.858.656.913,1.048.046.333-.383.822-.723,1.086a1.853,1.853,0,0,1-1.029.137q-13.311.009-26.622,0a4.111,4.111,0,0,1-.676-.028,1.109,1.109,0,0,1-1.078-1.242,1.064,1.064,0,0,1,1.161-1.05c1.129-.02,2.259-.011,3.388-.012h10.552" transform="translate(-190.218 -695.32)" fill="#606060"/>
        <path id="Path_95090" data-name="Path 95090" d="M204.1,328.246c1.838,0,3.677.009,5.515,0,.781-.005,1.34.268,1.429,1.1.075.7-.51,1.222-1.419,1.226-3.677.017-7.354.01-11.031.005-.791,0-1.421-.256-1.467-1.173-.037-.736.484-1.146,1.457-1.152,1.838-.012,3.677,0,5.515,0" transform="translate(-190.142 -316.604)" fill="#606060"/>
        <path id="Path_95091" data-name="Path 95091" d="M204.237,527.485c-1.839,0-3.677.007-5.515,0-.754,0-1.365-.271-1.407-1.128a1.034,1.034,0,0,1,1.116-1.181c3.87-.02,7.741-.016,11.611-.007a1.067,1.067,0,0,1,1.176,1.138,1.136,1.136,0,0,1-1.271,1.169c-1.9.024-3.806.008-5.709.008v0" transform="translate(-190.316 -506.54)" fill="#606060"/>
      </g>
    </g>
  </g>
</svg>
