<svg xmlns="http://www.w3.org/2000/svg" xmlns:xlink="http://www.w3.org/1999/xlink" width="24" height="24" viewBox="0 0 24 24">
  <defs>
    <clipPath id="clip-chat">
      <rect width="24" height="24"/>
    </clipPath>
  </defs>
  <g id="chat" clip-path="url(#clip-chat)">
    <path id="chat-2" data-name="chat" d="M20.626,12.826a7.3,7.3,0,0,0-6.666-3.5A5.606,5.606,0,0,0,11.852,6.36C8.462,3.853,2.821,4.366.571,8.354-.882,11.06.628,14.08,3.049,15.362v2.706a.685.685,0,0,0,.627.684.478.478,0,0,0,.4-.171l2.137-2.222a6.171,6.171,0,0,0,1.026.028c1.026,3.3,4.7,4.757,7.748,4.444l2.137,2.222A.582.582,0,0,0,18,23.025a.8.8,0,0,0,.171-.427V19.863a5.257,5.257,0,0,0,2.45-7.036ZM4.018,14.251C1.824,13.2.8,11.032,1.853,9.009A5.9,5.9,0,0,1,7.009,6.331a6.284,6.284,0,0,1,3.846,1.2,4.128,4.128,0,0,1,1.538,1.994c-2.564.37-5.384,2.393-5.384,5.412-.313,0-.627-.028-.969-.057a.746.746,0,0,0-.484.142L4.3,16.3v-1.51c.057-.171-.085-.4-.285-.541Zm4.9-.769c1.852-3.134,6.58-3.418,9.23-1.367a3.908,3.908,0,0,1,1.624,3.048,4.221,4.221,0,0,1-2.592,3.646.616.616,0,0,0-.342.57v1.538l-1.253-1.282a.527.527,0,0,0-.513-.171,5.528,5.528,0,0,1-.969.057,7.521,7.521,0,0,1-2.222-.342c-2.222-.741-4.33-3.162-2.963-5.7Z" transform="translate(0.998 -1.83)"/>
  </g>
</svg>
