<svg xmlns="http://www.w3.org/2000/svg" xmlns:xlink="http://www.w3.org/1999/xlink" width="50" height="50" viewBox="0 0 50 50">
  <defs>
    <clipPath id="clip-survey">
      <rect width="50" height="50"/>
    </clipPath>
  </defs>
  <g id="survey" clip-path="url(#clip-survey)">
    <g id="survey-3" transform="translate(-17.333 3)">
      <path id="Path_95105" data-name="Path 95105" d="M52.288,2.055A3.089,3.089,0,0,1,55.38,5.139V20.246l.3-.72L38.137,37.3,38.873,37H26.488A3.081,3.081,0,0,1,23.4,33.923V1.028L22.365,2.055ZM21.333,0V33.923a5.141,5.141,0,0,0,5.155,5.128H39.305l.3-.307,17.54-17.778.3-.3V5.139A5.148,5.148,0,0,0,52.288,0ZM54.651,25.993l-.73.727.73.727,4.127,4.111.73.727.73-.727,3.1-3.083.73-.727-.73-.727L59.205,22.91l-.73-.727-.73.727-3.1,3.083Zm3.1-1.63,4.127,4.111V27.02l-3.1,3.083h1.459L56.11,25.993v1.453l3.1-3.083H57.746Z" fill="#606060" stroke="#606060" stroke-width="0.5"/>
      <path id="Path_95106" data-name="Path 95106" d="M288.969,215.259l-.221.22-.061.305-1.032,5.138-.3,1.512,1.518-.3,5.159-1.028.306-.061.221-.22,11.349-11.3.73-.727-.73-.727-4.127-4.111-.73-.727-.73.727Zm11.349-9.851,4.127,4.111v-1.453L293.1,219.37l.527-.281-5.159,1.028,1.214,1.209,1.032-5.138-.282.525,11.349-11.3Zm-15.423-1.052a1.406,1.406,0,0,1,1.409,1.4v.372a1.409,1.409,0,0,1-2.818,0v-.372a1.4,1.4,0,0,1,1.409-1.4Zm-6.545-11.223a1.135,1.135,0,0,0,1.2.969,1.071,1.071,0,0,0,1.152-.969q-.108-4.708,4.377-4.481a3.135,3.135,0,0,1,3.089,3.359,7.617,7.617,0,0,1-2.237,3.477q-2.669,2.689-2.669,4.816v1.454a1.157,1.157,0,0,0,2.24,0v-1.01c0-1.184.852-2.609,2.56-4.257,1.786-1.638,2.672-3.135,2.672-4.481q-.221-5.6-5.871-5.826Q278.351,186.077,278.349,193.133Z" transform="translate(-245.667 -177.962)" fill="#606060" stroke="#606060" stroke-width="0.5"/>
    </g>
  </g>
</svg>
