<svg xmlns="http://www.w3.org/2000/svg" xmlns:xlink="http://www.w3.org/1999/xlink" width="50" height="50" viewBox="0 0 50 50">
  <defs>
    <clipPath id="clip-path">
      <rect id="Rectangle_17792" data-name="Rectangle 17792" width="43.582" height="46.629" fill="#606060"/>
    </clipPath>
    <clipPath id="clip-assignment_2">
      <rect width="50" height="50"/>
    </clipPath>
  </defs>
  <g id="assignment_2" data-name="assignment – 2" clip-path="url(#clip-assignment_2)">
    <g id="Group_26575" data-name="Group 26575">
      <g id="Group_26574" data-name="Group 26574" transform="translate(3 2)">
        <g id="Group_26572" data-name="Group 26572" clip-path="url(#clip-path)">
          <path id="Path_95116" data-name="Path 95116" d="M21.735,46.623q-8.412,0-16.824.005a4.8,4.8,0,0,1-3.554-1.29A4.293,4.293,0,0,1,.005,42.155Q-.005,25.583,0,9.011A4.5,4.5,0,0,1,1.238,5.967,4.522,4.522,0,0,1,4.871,4.461c3.453,0,6.907-.008,10.36.008.386,0,.527-.116.653-.482A5.675,5.675,0,0,1,20.708.1,6.413,6.413,0,0,1,25.5,1.139a5.178,5.178,0,0,1,2.142,2.87.536.536,0,0,0,.625.458q5.156-.02,10.313,0A8.316,8.316,0,0,1,40,4.6,4.772,4.772,0,0,1,43.582,9c-.014,11.064,0,22.128-.013,33.192a4.419,4.419,0,0,1-4.251,4.384c-2.327.064-4.656.039-6.985.043q-5.3.008-10.6,0m17.239-4.37V9.52c0-.633,0-.634-.652-.634H5.2c-.677,0-.678,0-.678.673q0,16.023,0,32.046c0,.648,0,.649.646.649h33.8ZM21.748,7.972a2.23,2.23,0,1,0,.022-4.46,2.19,2.19,0,0,0-2.244,2.242,2.188,2.188,0,0,0,2.223,2.218" transform="translate(0 0)" fill="#606060"/>
        </g>
      </g>
      <path id="Vector_3_" data-name="Vector (3)" d="M12.562,25.123a12.272,12.272,0,0,1-4.895-.988A12.483,12.483,0,0,1,.988,17.456,12.272,12.272,0,0,1,0,12.562,12.272,12.272,0,0,1,.988,7.667,12.483,12.483,0,0,1,7.667.988,12.272,12.272,0,0,1,12.562,0h1.062V10.055a2.708,2.708,0,0,1,.87,4.438,2.735,2.735,0,0,1-4.674-1.931A2.694,2.694,0,0,1,11.5,10.055V7.165a5.407,5.407,0,0,0-4.423,5.4,5.437,5.437,0,0,0,5.485,5.485,5.437,5.437,0,0,0,5.485-5.485,5.5,5.5,0,0,0-.472-2.285,5.376,5.376,0,0,0-1.327-1.813l1.533-1.533a8.031,8.031,0,0,1,1.784,2.506,7.4,7.4,0,0,1,.663,3.126A7.352,7.352,0,0,1,18,17.987a7.426,7.426,0,0,1-5.44,2.211,7.391,7.391,0,0,1-5.411-2.211,7.352,7.352,0,0,1-2.226-5.426A7.41,7.41,0,0,1,6.8,7.49a7.528,7.528,0,0,1,4.7-2.536V2.212A10.014,10.014,0,0,0,4.836,5.544a10.074,10.074,0,0,0-2.683,7.018A10.037,10.037,0,0,0,5.19,19.933a10.037,10.037,0,0,0,7.372,3.037,10.037,10.037,0,0,0,7.372-3.037,10.037,10.037,0,0,0,3.037-7.372,10.042,10.042,0,0,0-.87-4.172,11.124,11.124,0,0,0-2.374-3.406l1.5-1.5a12.643,12.643,0,0,1,2.845,4.054,12.188,12.188,0,0,1,1.047,5.028,12.272,12.272,0,0,1-.988,4.895,12.482,12.482,0,0,1-6.679,6.679A12.272,12.272,0,0,1,12.562,25.123Z" transform="translate(12 16)" fill="#606060"/>
    </g>
  </g>
</svg>
