<svg xmlns="http://www.w3.org/2000/svg" xmlns:xlink="http://www.w3.org/1999/xlink" width="50" height="50" viewBox="0 0 50 50">
  <defs>
    <clipPath id="clip-lesson">
      <rect width="50" height="50"/>
    </clipPath>
  </defs>
  <g id="lesson" clip-path="url(#clip-lesson)">
    <g id="Group_26566" data-name="Group 26566" transform="translate(5 4)">
      <path id="Path_95060" data-name="Path 95060" d="M18.435,43.784a29.387,29.387,0,0,0-8.722-5.35A26.4,26.4,0,0,0,0,36.568V15.118a24.244,24.244,0,0,1,9.614,2.012,32.162,32.162,0,0,1,8.821,5.694,32.162,32.162,0,0,1,8.821-5.694,24.244,24.244,0,0,1,9.614-2.012v21.45a26.4,26.4,0,0,0-9.713,1.865A29.386,29.386,0,0,0,18.435,43.784Zm0-4.712A32.433,32.433,0,0,1,25.4,35.12a29.422,29.422,0,0,1,7.558-1.988V19.389a19.692,19.692,0,0,0-6.963,2.479,40.092,40.092,0,0,0-7.558,5.669A42.6,42.6,0,0,0,10.8,21.843a20.133,20.133,0,0,0-6.839-2.454V33.132A27.459,27.459,0,0,1,11.423,35.1,34.457,34.457,0,0,1,18.435,39.072Zm.149-23.315a7.69,7.69,0,0,1-5.625-2.282,7.543,7.543,0,0,1-2.3-5.571A7.791,7.791,0,0,1,18.584,0a7.69,7.69,0,0,1,5.625,2.282,7.6,7.6,0,0,1,2.3,5.62,7.585,7.585,0,0,1-2.28,5.571A7.667,7.667,0,0,1,18.584,15.756Zm0-3.583a4.233,4.233,0,0,0,3.1-1.252,4.151,4.151,0,0,0,1.264-3.068,4.056,4.056,0,0,0-1.288-3.019,4.257,4.257,0,0,0-3.073-1.252,4.191,4.191,0,0,0-3.1,1.276A4.175,4.175,0,0,0,14.223,7.9a4.056,4.056,0,0,0,1.288,3.019A4.257,4.257,0,0,0,18.584,12.173Z" fill="#606060"/>
    </g>
  </g>
</svg>
