<svg xmlns="http://www.w3.org/2000/svg" xmlns:xlink="http://www.w3.org/1999/xlink" width="50" height="50" viewBox="0 0 50 50">
  <defs>
    <clipPath id="clip-Zoommeeting">
      <rect width="50" height="50"/>
    </clipPath>
  </defs>
  <g id="Zoommeeting" clip-path="url(#clip-Zoommeeting)">
    <path id="Vector_5_" data-name="Vector (5)" d="M3.761,32.07a3.6,3.6,0,0,1-2.642-1.126A3.651,3.651,0,0,1,0,28.283V3.835A3.706,3.706,0,0,1,1.119,1.127,3.6,3.6,0,0,1,3.761,0H28.044a3.656,3.656,0,0,1,2.69,1.127,3.706,3.706,0,0,1,1.119,2.708V13.9l7.618-7.67V25.886l-7.618-7.67V28.283a3.833,3.833,0,0,1-3.809,3.787Zm0-3.787H28.044V3.835H3.761Z" transform="translate(5 9)" fill="#606060"/>
  </g>
</svg>
