<svg xmlns="http://www.w3.org/2000/svg" xmlns:xlink="http://www.w3.org/1999/xlink" width="50" height="50" viewBox="0 0 50 50">
  <defs>
    <clipPath id="clip-choice">
      <rect width="50" height="50"/>
    </clipPath>
  </defs>
  <g id="choice" clip-path="url(#clip-choice)">
    <g id="Group_26549" data-name="Group 26549" transform="translate(3.335 6.801)">
      <g id="Group_26570" data-name="Group 26570">
        <path id="Path_95070" data-name="Path 95070" d="M.17,370.235c0-1.508-.01-3.016,0-4.524a3.14,3.14,0,0,1,3.3-3.355q4.573-.026,9.146,0a3.132,3.132,0,0,1,3.307,3.351q.022,4.524,0,9.047a3.149,3.149,0,0,1-3.4,3.357q-4.474.017-8.949,0A3.164,3.164,0,0,1,.172,374.66c-.008-1.475,0-2.95,0-4.425m3.24,4.656H12.7v-9.36H3.41Z" transform="translate(-0.156 -340.28)" fill="#606060"/>
        <path id="Path_95071" data-name="Path 95071" d="M3.217,3.169v9.4h9.4c0-.934-.009-1.871,0-2.808.013-1.163.609-1.86,1.572-1.863s1.567.7,1.581,1.856c.011.952.021,1.9,0,2.855a3.1,3.1,0,0,1-3.106,3.156q-4.775.053-9.551,0A3.063,3.063,0,0,1,.027,12.693q-.057-4.775,0-9.551A3.092,3.092,0,0,1,3.163.02C4.672-.011,6.183,0,7.693.016a1.594,1.594,0,0,1,1.776,1.56A1.588,1.588,0,0,1,7.72,3.164c-1.472.019-2.945,0-4.5,0" transform="translate(0 0)" fill="#606060"/>
        <path id="Path_95072" data-name="Path 95072" d="M323.467,55.09q-5.312,0-10.623,0c-1.3,0-2.039-.61-2.009-1.623.029-.983.732-1.532,2-1.532q10.623,0,21.247,0c1.238,0,1.956.588,1.961,1.571s-.716,1.581-1.95,1.582q-5.312.008-10.623,0" transform="translate(-291.906 -48.769)" fill="#606060"/>
        <path id="Path_95073" data-name="Path 95073" d="M323.34,417.276H313.209c-.229,0-.459.008-.689,0a1.594,1.594,0,0,1-1.676-1.561,1.56,1.56,0,0,1,1.644-1.585c1.114-.029,2.229-.008,3.344-.008H333.44c.229,0,.459,0,.689,0,1.215.015,1.943.626,1.922,1.611-.02.949-.726,1.541-1.89,1.543q-5.41.011-10.82,0" transform="translate(-291.917 -388.895)" fill="#606060"/>
        <path id="Path_95074" data-name="Path 95074" d="M319.605,155.423c2.229,0,4.457-.007,6.686,0,1.158,0,1.863.6,1.878,1.553s-.691,1.6-1.833,1.6q-6.833.013-13.666,0c-1.138,0-1.846-.645-1.828-1.6s.715-1.543,1.882-1.548c2.294-.009,4.588,0,6.882,0" transform="translate(-291.913 -145.957)" fill="#606060"/>
        <path id="Path_95075" data-name="Path 95075" d="M319.513,520.868c-2.261,0-4.523.006-6.784,0-1.161,0-1.868-.6-1.888-1.545-.021-.991.7-1.606,1.921-1.608q6.735-.009,13.469,0c1.226,0,1.948.607,1.937,1.593s-.729,1.558-1.97,1.561c-2.229.006-4.457,0-6.686,0" transform="translate(-291.913 -486.185)" fill="#606060"/>
        <path id="Path_95076" data-name="Path 95076" d="M81.354,30.888c1.727-1.733,3.389-3.4,5.055-5.07a1.4,1.4,0,0,1,1.938-.323,2.8,2.8,0,0,1,.795,1.53c.065.288-.237.744-.494,1.006q-3.027,3.086-6.109,6.119a1.569,1.569,0,0,1-2.5-.023c-.428-.4-.845-.823-1.251-1.25a1.593,1.593,0,0,1-.186-2.354c.64-.679,1.471-.66,2.357.053.1.079.2.157.391.31" transform="translate(-73.409 -23.689)" fill="#606060"/>
      </g>
    </g>
  </g>
</svg>
