<svg xmlns="http://www.w3.org/2000/svg" xmlns:xlink="http://www.w3.org/1999/xlink" width="50" height="50" viewBox="0 0 50 50">
  <defs>
    <clipPath id="clip-external_tools">
      <rect width="50" height="50"/>
    </clipPath>
  </defs>
  <g id="external_tools" data-name="external tools" clip-path="url(#clip-external_tools)">
    <g id="Group_26552" data-name="Group 26552" transform="translate(6 6)">
      <g id="Group_26571" data-name="Group 26571" transform="translate(0)">
        <path id="Path_95085" data-name="Path 95085" d="M19.2,38.4q-7.405,0-14.81,0C1.627,38.4,0,36.787,0,34.048Q0,19.2,0,4.345A3.994,3.994,0,0,1,4.314,0Q12.009,0,19.7.007a1.984,1.984,0,0,1,1.956,2.813,2.038,2.038,0,0,1-2.021,1.164q-6.867-.017-13.735,0c-1.559,0-1.926.374-1.926,1.962q0,13.279,0,26.558c0,1.533.38,1.921,1.885,1.921H32.587c1.416,0,1.833-.41,1.833-1.806q0-6.909,0-13.817a2.048,2.048,0,0,1,1.669-2.226,2,2,0,0,1,2.3,2.087c.017,2.206.005,4.413.005,6.619q0,4.385,0,8.77a4,4,0,0,1-4.387,4.35q-7.405,0-14.81,0" transform="translate(0 0)" fill="#606060"/>
        <path id="Path_95086" data-name="Path 95086" d="M392.555,3.992c-1.281,0-2.4.005-3.51,0a2.013,2.013,0,0,1-2.239-2,2.021,2.021,0,0,1,2.27-1.974q4.327-.008,8.675,0c1.135,0,1.625.474,1.625,1.6.01,2.949.021,5.9,0,8.847a1.989,1.989,0,1,1-3.968,0c-.01-1.149,0-2.3,0-3.6-.333.3-.552.489-.75.693-3.614,3.6-7.207,7.215-10.831,10.807a3.412,3.412,0,0,1-1.208.82,1.9,1.9,0,0,1-2.208-.872,2.015,2.015,0,0,1,.2-2.311c.177-.211.385-.4.573-.594q5.327-5.321,10.643-10.642c.208-.207.406-.425.729-.767" transform="translate(-360.981 -0.013)" fill="#606060"/>
      </g>
    </g>
  </g>
</svg>
