<svg xmlns="http://www.w3.org/2000/svg" xmlns:xlink="http://www.w3.org/1999/xlink" width="50" height="50" viewBox="0 0 50 50">
  <defs>
    <clipPath id="clip-ims_content_package">
      <rect width="50" height="50"/>
    </clipPath>
  </defs>
  <g id="ims_content_package" data-name="ims content package" clip-path="url(#clip-ims_content_package)">
    <g id="imscp" transform="translate(3 3)">
      <path id="Path_95099" data-name="Path 95099" d="M20.691,39.317H9.383V32.46L4.451,32.4a.969.969,0,0,0-.842.6L.12,40.64a1.509,1.509,0,0,0-.12.6V56.4c0,.662.421,1.263.962,1.263H19.969c.481,0,.962-.6.962-1.263V40.46c0-.722.12-1.023-.241-1.143ZM17.8,54.354H3.248V40.881l2.707-5.293h.361v6.857H17.8V54.354ZM23.819,40.46V56.4c0,.662.481,1.263.962,1.263H43.788c.541,0,.962-.6.962-1.263V41.242a1.509,1.509,0,0,0-.12-.6L41.142,33a.969.969,0,0,0-.842-.6l-4.932.06v6.857H24.059C23.7,39.437,23.819,39.738,23.819,40.46Zm3.128,1.985H38.435V35.588H38.8L41.5,40.881V54.354H26.947Z" transform="translate(0 -12.912)" fill="#606060"/>
      <path id="Path_95100" data-name="Path 95100" d="M40.489,7.639,37.06.541A.889.889,0,0,0,36.279,0H24.971a.889.889,0,0,0-.782.541L20.82,7.579a1.084,1.084,0,0,0-.12.6V22.315a1.058,1.058,0,0,0,.962,1.083H39.707a1.077,1.077,0,0,0,.9-1.143V8.12A1.133,1.133,0,0,0,40.489,7.639ZM26.534,3.188h8.24l1.5,2.947H25.091l1.444-2.947ZM37.481,20.21H24.008V9.263H37.481Z" transform="translate(-8.249)" fill="#606060"/>
      <path id="Path_95101" data-name="Path 95101" d="M0,0H44.751V44.751H0Z" fill="none"/>
    </g>
  </g>
</svg>
