<svg xmlns="http://www.w3.org/2000/svg" xmlns:xlink="http://www.w3.org/1999/xlink" width="50" height="50" viewBox="0 0 50 50">
  <defs>
    <clipPath id="clip-forum">
      <rect width="50" height="50"/>
    </clipPath>
  </defs>
  <g id="forum" clip-path="url(#clip-forum)">
    <g id="Group_26558" data-name="Group 26558" transform="translate(5 5)">
      <g id="Group_26568" data-name="Group 26568">
        <path id="Path_95094" data-name="Path 95094" d="M55.306,21.53v5.717c-.23-.164-.386-.267-.533-.382-2.137-1.662-4.277-3.32-6.4-4.994a1.561,1.561,0,0,0-1.043-.348q-6.1.018-12.208.005A3.346,3.346,0,0,1,31.7,18.84a3.95,3.95,0,0,1-.054-.743q0-7.3,0-14.6A3.273,3.273,0,0,1,35.141,0C39.127,0,43.113,0,47.1,0,50.306,0,53.511,0,56.717.008a3.049,3.049,0,0,1,3.245,3.253q.017,7.5,0,15a3.1,3.1,0,0,1-3.3,3.27c-.428,0-.856,0-1.357,0m-2.133-2.16c1.211,0,2.353,0,3.5,0,.8,0,1.174-.352,1.175-1.144q.007-7.473,0-14.945a1.026,1.026,0,0,0-1.18-1.151q-10.711,0-21.421,0c-1.05,0-1.477.443-1.477,1.483q.006,7.1,0,14.2c0,1.168.367,1.551,1.542,1.552q6.451,0,12.9.01a1.194,1.194,0,0,1,.675.215c1.045.793,2.068,1.614,3.1,2.423.37.29.744.576,1.186.919Z" transform="translate(-20.867 0)" fill="#606060" stroke="#000" stroke-width="0.3"/>
        <path id="Path_95095" data-name="Path 95095" d="M4.7,37.349c-.492,0-.887,0-1.282,0A3.379,3.379,0,0,1,.006,33.936Q0,26.488,0,19.04a3.006,3.006,0,0,1,3.22-3.213c1.877-.012,3.753,0,5.63,0h.422v2.127h-.7c-1.744,0-3.487,0-5.231,0-.936,0-1.217.3-1.218,1.229q0,7.174,0,14.347a3.463,3.463,0,0,0,.053.693,1.144,1.144,0,0,0,1.164.958c1.112.015,2.224.016,3.337.024.013,0,.027.018.087.06v3.285a4.909,4.909,0,0,0,.432-.244c1.289-.937,2.567-1.891,3.87-2.807a1.682,1.682,0,0,1,.9-.3c4.168-.019,8.337-.038,12.5,0,1.227.012,1.708-.438,1.766-1.648.622.485,1.213.925,1.77,1.4.077.066.044.349-.028.484A3.261,3.261,0,0,1,25,37.34c-3.637.019-7.275.056-10.91-.017a4.855,4.855,0,0,0-3.4,1.1c-1.828,1.486-3.769,2.831-5.664,4.234-.078.058-.16.11-.318.218Z" transform="translate(0 -10.434)" fill="#606060" stroke="#000" stroke-width="0.3"/>
        <path id="Path_95096" data-name="Path 95096" d="M36.937,70.831c0,.582-.009,1.1,0,1.608a1.156,1.156,0,0,0,1.312,1.273c4.334,0,8.667,0,13,.012a1.378,1.378,0,0,1,.761.256c1.283.945,2.546,1.917,3.816,2.88.14.106.287.2.512.363V73.714h2.674c.249,0,.5,0,.747,0a1.127,1.127,0,0,0,1.247-1.232c.018-1.594.007-3.188.009-4.782,0-1-.01-1.992.012-2.988a.58.58,0,0,1,.241-.45,4,4,0,0,0,1.839-1.477c.015.235.033.386.033.538q0,4.608,0,9.215a3.249,3.249,0,0,1-3.3,3.328c-.439.007-1.021-.1-1.274.13-.222.2-.086.81-.088,1.238-.006,1.278,0,2.557,0,3.835,0,.126-.019.253-.037.474-.572-.429-1.085-.81-1.593-1.2C55,78.934,53.157,77.516,51.3,76.122a1.375,1.375,0,0,0-.769-.251c-4.051-.017-8.1-.014-12.153-.017a3.263,3.263,0,0,1-3.559-3.607c.005-.883.287-1.363.865-1.41.393-.032.791-.006,1.255-.006" transform="translate(-22.963 -41.407)" fill="#606060" stroke="#000" stroke-width="0.3"/>
      </g>
    </g>
  </g>
</svg>
