<svg xmlns="http://www.w3.org/2000/svg" xmlns:xlink="http://www.w3.org/1999/xlink" width="50" height="50" viewBox="0 0 50 50">
  <defs>
    <clipPath id="clip-URL">
      <rect width="50" height="50"/>
    </clipPath>
  </defs>
  <g id="URL" clip-path="url(#clip-URL)">
    <g id="Group_26560" data-name="Group 26560" transform="translate(3 3.539)">
      <g id="Group_26564" data-name="Group 26564">
        <path id="Path_95107" data-name="Path 95107" d="M21.042,14.195c-5.6,0-11.2.014-16.806-.016-.814,0-1.094.209-1.09,1.06.032,6.656.011,13.312.021,19.968a4.083,4.083,0,0,0,4.359,4.352q7.5.008,15,0c.3,0,.6-.012.9.011a1.537,1.537,0,0,1,.189,3.068,5.833,5.833,0,0,1-1.078.069q-7.454.006-14.908,0A7.254,7.254,0,0,1,.021,35.172q-.042-13.824,0-27.648A7.26,7.26,0,0,1,7.654.005q13.508-.01,27.016,0A7.271,7.271,0,0,1,42.2,7.527c.012,4.518,0,9.035,0,13.553a2.724,2.724,0,0,1-.164,1.242,1.476,1.476,0,0,1-1.443.9,1.42,1.42,0,0,1-1.343-.9,2.846,2.846,0,0,1-.2-1.238c0-1.958-.03-3.916.015-5.873.019-.8-.253-1.031-1.041-1.027-5.662.028-11.324.015-16.987.015m0-3.027c5.661,0,11.322-.013,16.983.015.788,0,1.083-.231,1.038-1.028-.056-.991.005-1.987-.025-2.98a4.024,4.024,0,0,0-4.127-4.015q-13.776-.014-27.553,0A4.128,4.128,0,0,0,3.168,7.331c-.018.933.048,1.871-.02,2.8-.064.867.293,1.057,1.1,1.052,5.6-.029,11.2-.015,16.8-.015" transform="translate(0.001 0)" fill="#606060"/>
        <path id="Path_95108" data-name="Path 95108" d="M651.922,640.764a6.718,6.718,0,0,1-3.976,6.5,6.562,6.562,0,0,1-7.1-1.483c-1.131-.988-2.149-2.1-3.2-3.18a1.7,1.7,0,0,1-.228-2.48,1.675,1.675,0,0,1,2.478.187c1.1,1.072,2.152,2.19,3.267,3.244a3.239,3.239,0,0,0,5.494-1.652,3.085,3.085,0,0,0-.934-2.964c-1.113-1.142-2.26-2.252-3.369-3.4a1.575,1.575,0,0,1-.284-1.991,1.5,1.5,0,0,1,1.7-.726,1.719,1.719,0,0,1,.925.53c1.192,1.191,2.413,2.356,3.562,3.587a6.063,6.063,0,0,1,1.668,3.823" transform="translate(-609.172 -605.173)" fill="#606060"/>
        <path id="Path_95109" data-name="Path 95109" d="M437.309,426.721a3.094,3.094,0,0,0-3.18,1.953,3.054,3.054,0,0,0,.584,3.447c1.078,1.135,2.206,2.223,3.307,3.336a1.757,1.757,0,0,1,.642,1.769,1.478,1.478,0,0,1-2.511.857,31.367,31.367,0,0,1-3.8-3.853,6.8,6.8,0,0,1-1.022-7.071,5.974,5.974,0,0,1,5.295-3.663,6.086,6.086,0,0,1,4.878,1.71c1.212,1.127,2.367,2.317,3.521,3.5A1.605,1.605,0,1,1,442.789,431c-1.136-1.077-2.23-2.2-3.334-3.309a2.923,2.923,0,0,0-2.146-.966" transform="translate(-411.96 -404.982)" fill="#606060"/>
        <path id="Path_95110" data-name="Path 95110" d="M582.945,579.873a1.813,1.813,0,0,1,1.3.583c2.383,2.382,4.773,4.756,7.144,7.151a1.732,1.732,0,0,1,.009,2.5,1.451,1.451,0,0,1-2.173-.165c-2.475-2.417-4.913-4.87-7.343-7.333a1.529,1.529,0,0,1-.287-1.84,1.6,1.6,0,0,1,1.354-.9" transform="translate(-556.032 -554.565)" fill="#606060"/>
        <path id="Path_95111" data-name="Path 95111" d="M494.994,136.448a1.825,1.825,0,1,1,.021-3.648,1.826,1.826,0,1,1-.021,3.648" transform="translate(-471.585 -127.004)" fill="#606060"/>
        <path id="Path_95112" data-name="Path 95112" d="M618.708,132.819a1.824,1.824,0,0,1,.047,3.648,1.826,1.826,0,1,1-.047-3.648" transform="translate(-589.894 -127.023)" fill="#606060"/>
        <path id="Path_95113" data-name="Path 95113" d="M734.892,136.449a1.827,1.827,0,1,1,.089-3.646,1.824,1.824,0,0,1-.089,3.646" transform="translate(-701.018 -127.006)" fill="#606060"/>
      </g>
    </g>
  </g>
</svg>
