<svg xmlns="http://www.w3.org/2000/svg" xmlns:xlink="http://www.w3.org/1999/xlink" width="50" height="50" viewBox="0 0 50 50">
  <defs>
    <clipPath id="clip-workshop">
      <rect width="50" height="50"/>
    </clipPath>
  </defs>
  <g id="workshop" clip-path="url(#clip-workshop)">
    <path id="workshop-2" data-name="workshop" d="M38.608,32a16.527,16.527,0,0,0-9.242-2.567,17.424,17.424,0,0,0-8.1,1.883,17.424,17.424,0,0,0-8.1-1.883A16.527,16.527,0,0,0,3.922,32,7.664,7.664,0,0,0,.1,38.388v2.4a1.582,1.582,0,0,0,1.54,1.6H41a1.582,1.582,0,0,0,1.54-1.6v-2.4A7.933,7.933,0,0,0,38.608,32ZM23.262,39.472H3.181v-.856c.171-3.195,3.537-4.849,6.1-5.648A14.646,14.646,0,0,1,20.41,34.337a5.215,5.215,0,0,1,2.852,4.222Zm16.2,0H26.343a8.151,8.151,0,0,0-2.054-6.1,14.609,14.609,0,0,1,12.323.97,5.215,5.215,0,0,1,2.852,4.222ZM13.107,27.663a6.6,6.6,0,0,0,6.675-6.618c-.342-8.729-13.064-8.729-13.464,0a6.734,6.734,0,0,0,6.789,6.618ZM9.342,21.045a3.746,3.746,0,0,1,7.473,0c-.228,4.792-7.3,4.792-7.473,0Zm19.682,6.618A6.6,6.6,0,0,0,35.7,21.045c-.342-8.729-13.064-8.729-13.464,0a6.771,6.771,0,0,0,6.789,6.618Zm0-10.212a3.641,3.641,0,0,1,3.708,3.594c-.171,4.792-7.245,4.792-7.359,0a3.592,3.592,0,0,1,3.651-3.594ZM11.738.108a1.65,1.65,0,0,1,.97,2.111L11.8,4.387A25.736,25.736,0,0,1,30.907,4.5l-.97-2.225A1.616,1.616,0,0,1,30.85.165a1.653,1.653,0,0,1,2.168.856l2.339,5.7a1.616,1.616,0,0,1-.913,2.111l-5.876,2.282a1.7,1.7,0,0,1-2.111-.913,1.536,1.536,0,0,1,.913-2.054l2-.97a22.072,22.072,0,0,0-16.2-.057l2.111.97a1.576,1.576,0,0,1,.742,2.168,1.551,1.551,0,0,1-2,.8L8.144,8.779a1.609,1.609,0,0,1-.97-2.054l2.339-5.7A1.744,1.744,0,0,1,11.738.108Z" transform="translate(3.9 4.013)" fill="#606060"/>
  </g>
</svg>
