<svg xmlns="http://www.w3.org/2000/svg" xmlns:xlink="http://www.w3.org/1999/xlink" width="50" height="50" viewBox="0 0 50 50">
  <defs>
    <clipPath id="clip-chat">
      <rect width="50" height="50"/>
    </clipPath>
  </defs>
  <g id="chat" clip-path="url(#clip-chat)">
    <g id="Group" transform="translate(4.85 5.719)">
      <path id="Path_95061" data-name="Path 95061" d="M37.158,4.778a3.927,3.927,0,0,0-3.536-3.557A71.58,71.58,0,0,0,21.19.281a71.855,71.855,0,0,0-12.413.935A3.842,3.842,0,0,0,5.588,3.523a86.765,86.765,0,0,1,9.761-.529,75.928,75.928,0,0,1,12.924.979A6.952,6.952,0,0,1,34.287,10a46.424,46.424,0,0,1,.977,9.352,46.921,46.921,0,0,1-.449,6.316,3.916,3.916,0,0,0,2.337-3.2,43.3,43.3,0,0,0,.936-8.855,43.092,43.092,0,0,0-.933-8.833" transform="translate(1.698)" fill="#606060" fill-rule="evenodd"/>
      <path id="Path_95062" data-name="Path 95062" d="M33.015,9.152a3.93,3.93,0,0,0-3.537-3.559,71.932,71.932,0,0,0-12.43-.937,71.787,71.787,0,0,0-12.413.934A3.922,3.922,0,0,0,1.087,9.129a42.313,42.313,0,0,0-.005,17.687,3.929,3.929,0,0,0,3.537,3.559,63.673,63.673,0,0,0,8.315.843L16,36.555a1.2,1.2,0,0,0,2.09,0l3.07-5.336a63.394,63.394,0,0,0,8.3-.842,3.923,3.923,0,0,0,3.547-3.539,43.139,43.139,0,0,0,.936-8.854A43.261,43.261,0,0,0,33.015,9.152Z" transform="translate(0 1.366)" fill="none" stroke="#606060" stroke-width="3" fill-rule="evenodd"/>
    </g>
  </g>
</svg>
